<svg width="1130" height="1130" fill="none" xmlns="http://www.w3.org/2000/svg"><path fill="none" d="M0 0h1130v1130H0z"/><circle cx="565" cy="565" r="565" fill="url(#paint0_linear)"/><path fill-rule="evenodd" clip-rule="evenodd" d="M733.137 1104.56L238 609.422l371.27-371.27 495.22 495.219c-55.09 176.707-194.615 316.169-371.353 371.189z" fill="#0A7CD6"/><path fill-rule="evenodd" clip-rule="evenodd" d="M615.944 259.237c4.024-14.899-9.625-28.547-24.521-24.524l-302.166 81.602c-14.846 4.008-19.803 22.574-8.928 33.449l64.328 64.328-136.801 136.801c-7.808 7.809-7.808 20.473 0 28.285l63.641 63.637c7.811 7.812 20.475 7.812 28.285 0l136.801-136.797 64.311 64.309c10.875 10.875 29.441 5.922 33.451-8.926l81.599-302.164zM693.418 624.001l-64.326-64.328c-10.875-10.875-29.441-5.918-33.451 8.93l-81.599 302.164c-4.024 14.898 9.625 28.546 24.521 24.523l302.166-81.602c14.846-4.007 19.803-22.578 8.928-33.449l-64.315-64.316 136.803-136.801c7.809-7.812 7.809-20.476 0-28.285l-63.641-63.641c-7.81-7.808-20.474-7.808-28.283 0L693.418 624.001z" fill="#fff"/><defs><linearGradient id="paint0_linear" x1="565" x2="565" y2="1130" gradientUnits="userSpaceOnUse"><stop stop-color="#33A8FF"/><stop offset="1" stop-color="#3398FF"/></linearGradient></defs></svg>